<?xml version="1.0" encoding="utf-8"?>
<!-- Generator: Adobe Illustrator 24.0.3, SVG Export Plug-In . SVG Version: 6.00 Build 0)  -->
<svg version="1.1" id="Layer_1" xmlns="http://www.w3.org/2000/svg" xmlns:xlink="http://www.w3.org/1999/xlink" x="0px" y="0px"
	 viewBox="0 0 24 24" style="enable-background:new 0 0 24 24;" xml:space="preserve">
<style type="text/css">
	.st0{fill:#706F6F;}
	.st1{fill:#008B84;}
</style>
<g>
	<path class="st1" d="M21.8,16.2V4.7c0-0.5-0.4-0.9-0.9-0.9H3.1c-0.5,0-0.9,0.4-0.9,0.9v11.6L0,18.9c0,0.7,0.6,1.3,1.3,1.3h21.3
		c0.7,0,1.3-0.6,1.3-1.3L21.8,16.2z M13.8,19.8h-3.6c-0.1,0-0.2-0.1-0.2-0.2c0-0.1,0.1-0.2,0.2-0.2h3.6c0.1,0,0.2,0.1,0.2,0.2
		C14,19.7,13.9,19.8,13.8,19.8L13.8,19.8z M8.3,18.9L9,18.1h6l0.7,0.8H8.3z M20.5,14.7c0,0.4-0.4,0.8-0.8,0.8H4.3
		c-0.4,0-0.8-0.4-0.8-0.8V5.4c0-0.4,0.3-0.8,0.8-0.8h15.5c0.4,0,0.8,0.3,0.8,0.8V14.7z M20.5,14.7"/>
</g>
</svg>
