<svg xmlns="http://www.w3.org/2000/svg" viewBox="0 0 113.35 77.66"><defs><style>.cls-1{fill:#706f6f;}</style></defs><title>Asset 7</title><g id="Layer_2" data-name="Layer 2"><g id="Layer_1-2" data-name="Layer 1"><path class="cls-1" d="M102.86,58.79V4.2A4.21,4.21,0,0,0,98.66,0h-84a4.21,4.21,0,0,0-4.2,4.2V58.79L0,71.37a6.28,6.28,0,0,0,6.29,6.29H107.07a6.28,6.28,0,0,0,6.28-6.29ZM65.08,75.57H48.3a1,1,0,1,1,0-2.09H65.08a1.06,1.06,0,0,1,1.07,1,1.08,1.08,0,0,1-1.07,1Zm-25.69-4.2,3.2-3.83h28.2L74,71.37ZM97,51.36A3.69,3.69,0,0,1,93.3,55H20.08a3.7,3.7,0,0,1-3.67-3.67V7.43a3.68,3.68,0,0,1,3.67-3.67H93.3A3.69,3.69,0,0,1,97,7.43Z"/></g></g></svg>