<?xml version="1.0" encoding="utf-8"?>
<!-- Generator: Adobe Illustrator 24.0.3, SVG Export Plug-In . SVG Version: 6.00 Build 0)  -->
<svg version="1.1" id="Layer_1" xmlns="http://www.w3.org/2000/svg" xmlns:xlink="http://www.w3.org/1999/xlink" x="0px" y="0px"
	 viewBox="0 0 24 24" style="enable-background:new 0 0 24 24;" xml:space="preserve">
<style type="text/css">
	.st0{fill:#706F6F;}
	.st1{fill:#008B84;}
</style>
<g>
	<g>
		<path class="st1" d="M3,8.9L0.5,10C0.2,10.2,0,10.5,0,10.8c0,0.3,0.2,0.7,0.5,0.8l1.8,0.8l0,0l4.2-1.9L3,8.9z M3,8.9"/>
		<path class="st1" d="M8.2,11.4l-4.2,1.9l2.2,1l4.1-1.9L8.2,11.4z M8.2,11.4"/>
		<path class="st1" d="M12,13.1L8,15l3.7,1.6c0.1,0.1,0.2,0.1,0.4,0.1c0.1,0,0.2,0,0.4-0.1l3.7-1.7L12,13.1z M12,13.1"/>
		<path class="st1" d="M10.3,8.9L8.3,9.8L4.7,8.2l2-0.9L10.3,8.9z M10.3,8.9"/>
		<path class="st1" d="M14.1,10.6l-2.1,1l-2.1-1L12,9.7h0L14.1,10.6z M14.1,10.6"/>
		<g>
			<path class="st1" d="M15.8,11.4l-2.1,1l4.1,1.9l2.2-1L15.8,11.4z M15.8,11.4"/>
		</g>
		<path class="st1" d="M19.3,8.2l-3.6,1.6l-2.1-0.9l3.6-1.6L19.3,8.2z M19.3,8.2"/>
		<path class="st1" d="M24,10.8c0,0.3-0.2,0.7-0.5,0.8l-1.8,0.8h0l-4.2-1.9L21,8.9l2.4,1.1C23.8,10.2,24,10.5,24,10.8L24,10.8z
			 M24,10.8"/>
		<path class="st1" d="M23.5,13.3l-0.3-0.1L12.4,18c-0.1,0.1-0.2,0.1-0.4,0.1c-0.1,0-0.2,0-0.4-0.1L0.8,13.2l-0.3,0.1
			C0.2,13.4,0,13.7,0,14.1c0,0.3,0.2,0.7,0.5,0.8l11.1,5c0.1,0.1,0.2,0.1,0.4,0.1c0.1,0,0.2,0,0.4-0.1l11.1-5
			c0.3-0.1,0.5-0.5,0.5-0.8C24,13.7,23.8,13.4,23.5,13.3L23.5,13.3z M23.5,13.3"/>
		<path class="st1" d="M23.5,16.6l-0.3-0.1l-10.8,4.9c-0.1,0.1-0.2,0.1-0.4,0.1c-0.1,0-0.2,0-0.4-0.1L0.8,16.4l-0.3,0.1
			C0.2,16.7,0,17,0,17.4c0,0.3,0.2,0.7,0.5,0.8l11.1,5c0.1,0.1,0.2,0.1,0.4,0.1c0.1,0,0.2,0,0.4-0.1l11.1-5c0.3-0.1,0.5-0.5,0.5-0.8
			C24,17,23.8,16.7,23.5,16.6L23.5,16.6z M23.5,16.6"/>
	</g>
	<path class="st1" d="M13.2,9c0.1,0.3,0.1,0.5,0.1,0.8c1.2,0.6,2.5,0.4,3.7-0.2c2.1-1,3.4-3.1,3.6-5.2c0-0.2-0.1-0.4-0.2-0.5
		c-1.8-1.3-4.2-1.4-6.2-0.5C15.3,5.3,14.8,7.6,13.2,9L13.2,9z M13.2,9 M12.2,2.6C10.6,1,8.2,0.4,6.1,1C5.9,1,5.8,1.2,5.7,1.4
		C5,4.1,6.2,7,8.6,8.5c0.7,0.4,1.5,0.6,2.3,0.4c0.3,0.7,0.5,1.4,0.6,2.3h1.1c-0.1-0.9-0.3-1.9-0.7-2.7c-0.5-1.7-1.5-2.9-2.6-3.3
		C9.1,5,8.9,4.7,9.1,4.4C9.2,4.1,9.5,4,9.8,4.1c1.5,0.7,2.5,2.1,3.1,3.6c0.4-0.5,0.6-1,0.7-1.6C13.8,4.8,13.2,3.6,12.2,2.6z"/>
</g>
</svg>
