<svg xmlns="http://www.w3.org/2000/svg" viewBox="0 0 97.11 90.99"><defs><style>.cls-1{fill:#008b84;}</style></defs><title>Asset 10</title><g id="Layer_2" data-name="Layer 2"><g id="Layer_1-2" data-name="Layer 1"><path class="cls-1" d="M12,33.07,2.1,37.53a3.56,3.56,0,0,0,0,6.5l7.39,3.32.06,0,17-7.61Z"/><path class="cls-1" d="M33.35,42.93,16.49,50.49l8.88,4,16.49-7.62Z"/><path class="cls-1" d="M48.64,50,32.25,57.57l14.84,6.66a3.59,3.59,0,0,0,1.47.31A3.5,3.5,0,0,0,50,64.23l14.93-6.7Z"/><path class="cls-1" d="M41.69,32.94l-8.3,3.73L18.92,30,27,26.35Z"/><path class="cls-1" d="M57,39.84l-8.4,3.88-8.41-3.88,8.4-3.78h0Z"/><path class="cls-1" d="M63.92,42.93l-8.5,3.93,16.4,7.58,8.86-4Z"/><path class="cls-1" d="M78.28,30l-14.4,6.66L55.57,33l14.61-6.56Z"/><path class="cls-1" d="M97.11,40.78A3.57,3.57,0,0,1,95,44l-7.39,3.32h0L70.76,39.77l14.4-6.66L95,37.53a3.58,3.58,0,0,1,2.11,3.25Z"/><path class="cls-1" d="M95,50.66l-1-.46L50.09,69.9a3.57,3.57,0,0,1-2.91,0l-44-19.74-1.11.5a3.56,3.56,0,0,0,0,6.5l45,20.2a3.57,3.57,0,0,0,2.91,0l45-20.2a3.56,3.56,0,0,0,0-6.5Z"/><path class="cls-1" d="M95,64l-1.14-.51L50.09,83.12a3.57,3.57,0,0,1-2.91,0L3.33,63.43,2.1,64a3.56,3.56,0,0,0,0,6.5l45,20.2a3.58,3.58,0,0,0,1.46.31A3.51,3.51,0,0,0,50,90.68l45-20.2A3.56,3.56,0,0,0,95,64Z"/><path class="cls-1" d="M53.59,33.29c.2,1.05.36,2.12.48,3.22C58.86,39,64.08,38,69,35.63a26.06,26.06,0,0,0,14.61-21.2,2.29,2.29,0,0,0-1-2.08,25.5,25.5,0,0,0-25.28-1.89,18,18,0,0,1-3.76,22.83ZM49.43,7.61A25.5,25.5,0,0,0,24.76.85a2.25,2.25,0,0,0-1.62,1.63A26.08,26.08,0,0,0,34.84,31.2,13.17,13.17,0,0,0,44.2,33a38.39,38.39,0,0,1,2.36,9.35h4.58a45.47,45.47,0,0,0-2.69-11c-2-6.93-6.08-11.58-10.57-13.55a2.27,2.27,0,1,1,1.82-4.17C45.81,16.3,50,22,52.2,28.2a13.82,13.82,0,0,0,3-6.52C56,16.22,53.34,11.53,49.43,7.61Z"/></g></g></svg>