<svg xmlns="http://www.w3.org/2000/svg" viewBox="0 0 67.1 84.63"><defs><style>.cls-1{fill:#706f6f;}</style></defs><title>Asset 6</title><g id="Layer_2" data-name="Layer 2"><g id="Layer_1-2" data-name="Layer 1"><path class="cls-1" d="M65.64,0H45.21a1.46,1.46,0,0,0-1.46,1.46V7.3H40.83a2.92,2.92,0,1,0,0,5.83h2.92v7.3h5.84a5.84,5.84,0,1,1,11.67,0h4.38A1.47,1.47,0,0,0,67.1,19V1.46A1.47,1.47,0,0,0,65.64,0Z"/><path class="cls-1" d="M26.24,84.63a7.32,7.32,0,0,0,7.15-5.84H19.09a7.32,7.32,0,0,0,7.15,5.84Z"/><path class="cls-1" d="M14.57,26.26a5.85,5.85,0,0,1,5.84,5.84h5.83V27.72a5.84,5.84,0,0,1,0-11.67V8.75h-1A25.31,25.31,0,0,0,.05,32.1H8.73a5.85,5.85,0,0,1,5.84-5.84Z"/><path class="cls-1" d="M16,64.2H26.24V52.53a5.84,5.84,0,0,1,0-11.68V35H17.49V32.1a2.92,2.92,0,1,0-5.84,0V35H0A25.18,25.18,0,0,0,9.25,53.58L16,59.13Z"/><path class="cls-1" d="M43.75,32.1a2.92,2.92,0,0,0-5.84,0V35H29.16v8.75H26.24a2.92,2.92,0,1,0,0,5.84h2.92V64.2h7.3V59.13l6.78-5.55A25.14,25.14,0,0,0,52.48,35H43.75Z"/><path class="cls-1" d="M35,73H17.49a1.46,1.46,0,0,0,0,2.92H35A1.46,1.46,0,1,0,35,73Z"/><path class="cls-1" d="M37.91,67.12H14.57a1.46,1.46,0,1,0,0,2.91H37.91a1.46,1.46,0,1,0,0-2.91Z"/></g></g></svg>