<?xml version="1.0" encoding="utf-8"?>
<!-- Generator: Adobe Illustrator 24.0.3, SVG Export Plug-In . SVG Version: 6.00 Build 0)  -->
<svg version="1.1" id="Layer_1" xmlns="http://www.w3.org/2000/svg" xmlns:xlink="http://www.w3.org/1999/xlink" x="0px" y="0px"
	 viewBox="0 0 24 24" style="enable-background:new 0 0 24 24;" xml:space="preserve">
<style type="text/css">
	.st0{fill:#706F6F;}
	.st1{fill:#008B84;}
</style>
<g>
	<path class="st1" d="M8.2,7.5C3.7,7.5,0,11.2,0,15.8S3.7,24,8.2,24s8.2-3.7,8.2-8.2S12.8,7.5,8.2,7.5z M8.2,15c1.2,0,2.2,1,2.2,2.2
		c0,1-0.6,1.8-1.5,2.1v0.9C9,20.7,8.7,21,8.2,21c-0.4,0-0.8-0.3-0.8-0.8v-0.8H6.8c-0.4,0-0.8-0.3-0.8-0.8S6.3,18,6.8,18h1.5
		C8.7,18,9,17.7,9,17.2c0-0.4-0.3-0.8-0.8-0.8c-1.2,0-2.2-1-2.2-2.2c0-1,0.6-1.8,1.5-2.1v-0.9c0-0.4,0.3-0.8,0.8-0.8
		c0.4,0,0.8,0.3,0.8,0.8V12h0.8c0.4,0,0.8,0.3,0.8,0.8c0,0.4-0.3,0.8-0.8,0.8H8.2c-0.4,0-0.8,0.3-0.8,0.8S7.8,15,8.2,15z"/>
	<path class="st1" d="M15.8,9c-0.2,0-0.4,0-0.6-0.1c0.4,0.4,0.8,0.9,1.1,1.3c0.1-0.1,0.2-0.3,0.2-0.5C16.5,9.3,16.2,9,15.8,9z"/>
	<path class="st1" d="M15.8,0c-3.8,0-7,2.6-7.9,6C8,6,8.1,6,8.2,6c2,0,3.9,0.6,5.5,1.7c-0.1-0.3-0.2-0.6-0.2-0.9
		c0-1,0.6-1.8,1.5-2.1V3.8C15,3.3,15.3,3,15.8,3s0.8,0.3,0.8,0.8v0.8h0.8c0.4,0,0.8,0.3,0.8,0.8S17.7,6,17.2,6h-1.5
		C15.3,6,15,6.3,15,6.8s0.3,0.8,0.8,0.8c1.2,0,2.2,1,2.2,2.2c0,0.8-0.4,1.4-1,1.8c0.6,1.3,1,2.7,1,4.2c0,0.1,0,0.3,0,0.4
		c3.5-1,6-4.2,6-7.9C24,3.7,20.3,0,15.8,0z"/>
</g>
</svg>
