<svg xmlns="http://www.w3.org/2000/svg" viewBox="0 0 89.15 89.15"><defs><style>.cls-1{fill:#706f6f;}</style></defs><title>Asset 5</title><g id="Layer_2" data-name="Layer 2"><g id="Layer_1-2" data-name="Layer 1"><path class="cls-1" d="M30.65,27.86A30.65,30.65,0,1,0,61.29,58.51,30.65,30.65,0,0,0,30.65,27.86Zm0,27.86a8.34,8.34,0,0,1,2.78,16.2v3.3a2.79,2.79,0,1,1-5.57,0V72.44H25.07a2.79,2.79,0,0,1,0-5.58h5.58a2.79,2.79,0,0,0,0-5.57,8.34,8.34,0,0,1-2.79-16.2v-3.3a2.79,2.79,0,1,1,5.57,0v2.79h2.79a2.79,2.79,0,0,1,0,5.57H30.65a2.79,2.79,0,1,0,0,5.57Z"/><path class="cls-1" d="M58.51,33.43a8.66,8.66,0,0,1-2-.28,35.75,35.75,0,0,1,4.07,4.94,2.72,2.72,0,0,0,.76-1.87A2.8,2.8,0,0,0,58.51,33.43Z"/><path class="cls-1" d="M58.51,0A30.64,30.64,0,0,0,29,22.37c.54,0,1.08-.08,1.63-.08A36,36,0,0,1,50.9,28.5a8.28,8.28,0,0,1,4.82-11.27v-3.3a2.79,2.79,0,1,1,5.57,0v2.79h2.79a2.79,2.79,0,0,1,0,5.57H58.51a2.79,2.79,0,1,0,0,5.57,8.37,8.37,0,0,1,8.35,8.36A8.24,8.24,0,0,1,63.31,43a35.76,35.76,0,0,1,3.55,15.53c0,.54,0,1.08-.08,1.62A30.63,30.63,0,0,0,58.51,0Z"/></g></g></svg>