<svg xmlns="http://www.w3.org/2000/svg" viewBox="0 0 87.17 87.17"><defs><style>.cls-1{fill:#706f6f;}</style></defs><title>Asset 9</title><g id="Layer_2" data-name="Layer 2"><g id="Layer_1-2" data-name="Layer 1"><path class="cls-1" d="M82.44,51.38a7.81,7.81,0,0,0-2.93-.58,7.66,7.66,0,0,0-5.71,2.54l-1.66-.69-4.74-2a24.79,24.79,0,0,0,0-14.21l4.74-2,1.66-.69a7.66,7.66,0,1,0-2-4.72l-1.67.69-4.74,2a25,25,0,0,0-10-10l2-4.74.7-1.67h.4A7.66,7.66,0,0,0,61.39.58,7.73,7.73,0,0,0,58.46,0a7.66,7.66,0,0,0-5.12,13.36L52.65,15l-2,4.74a25,25,0,0,0-14.21,0l-2-4.74-.69-1.66A7.67,7.67,0,0,0,28.7,0a7.77,7.77,0,0,0-2.93.58,7.67,7.67,0,0,0,2.94,14.75l.4,0L29.8,17l2,4.74a25,25,0,0,0-10,10L17,29.8l-1.67-.69a7.67,7.67,0,0,0-4.72-7.48A7.55,7.55,0,0,0,7.66,21a7.67,7.67,0,1,0,5.7,12.79l1.66.69,4.74,2a25,25,0,0,0,0,14.21l-4.74,2-1.66.69a7.65,7.65,0,0,0-5.7-2.54,7.77,7.77,0,0,0-2.93.58A7.67,7.67,0,0,0,7.66,66.13a7.55,7.55,0,0,0,2.93-.59,7.67,7.67,0,0,0,4.72-7.48L17,57.37l4.74-2a25.09,25.09,0,0,0,10,10.05l-2,4.73-.69,1.67h-.4a7.66,7.66,0,1,0,5.12,2l.69-1.66,2-4.74a25,25,0,0,0,14.21,0l2,4.74.69,1.66a7.66,7.66,0,0,0,5.12,13.36,7.55,7.55,0,0,0,2.93-.59,7.66,7.66,0,0,0-2.93-14.74h-.4l-.7-1.67-2-4.73a25.09,25.09,0,0,0,10-10.05l4.74,2,1.67.69a7.68,7.68,0,0,0,4.72,7.48,7.64,7.64,0,0,0,10-4.15A7.67,7.67,0,0,0,82.44,51.38ZM43.58,63.33A19.75,19.75,0,1,1,63.33,43.58,19.77,19.77,0,0,1,43.58,63.33Z"/><path class="cls-1" d="M43.58,28.94A14.65,14.65,0,1,0,58.22,43.58,14.66,14.66,0,0,0,43.58,28.94ZM46.14,49.2H41V38h5.11Z"/></g></g></svg>