<?xml version="1.0" encoding="utf-8"?>
<!-- Generator: Adobe Illustrator 24.0.3, SVG Export Plug-In . SVG Version: 6.00 Build 0)  -->
<svg version="1.1" id="Layer_1" xmlns="http://www.w3.org/2000/svg" xmlns:xlink="http://www.w3.org/1999/xlink" x="0px" y="0px"
	 viewBox="0 0 24 24" style="enable-background:new 0 0 24 24;" xml:space="preserve">
<style type="text/css">
	.st0{fill:#706F6F;}
	.st1{fill:#008B84;}
</style>
<g>
	<path class="st1" d="M22.7,14.1C22.4,14,22.2,14,21.9,14c-0.6,0-1.2,0.3-1.6,0.7l-0.5-0.2L18.6,14c0.2-0.6,0.3-1.3,0.3-2
		c0-0.7-0.1-1.3-0.3-2l1.3-0.5l0.5-0.2c0.4,0.4,1,0.7,1.6,0.7c0.3,0,0.5-0.1,0.8-0.2c1.1-0.4,1.6-1.7,1.1-2.8
		c-0.3-0.8-1.1-1.3-1.9-1.3c-0.3,0-0.5,0.1-0.8,0.2c-0.8,0.4-1.3,1.2-1.3,2.1l-0.5,0.2L18,8.7c-0.6-1.2-1.6-2.1-2.8-2.8l0.5-1.3
		L16,4.2c0,0,0.1,0,0.1,0c0.9,0,1.6-0.5,1.9-1.3c0.4-1.1-0.1-2.3-1.1-2.8C16.6,0.1,16.4,0,16.1,0c-0.9,0-1.6,0.5-1.9,1.3
		c-0.4,0.8-0.1,1.8,0.5,2.4l-0.2,0.5L14,5.4c-0.6-0.2-1.3-0.3-2-0.3c-0.7,0-1.3,0.1-2,0.3L9.5,4.1L9.3,3.7c0.6-0.6,0.9-1.5,0.5-2.4
		C9.5,0.5,8.8,0,7.9,0C7.6,0,7.4,0.1,7.1,0.2C6,0.6,5.5,1.8,6,2.9C6.3,3.7,7,4.2,7.9,4.2c0,0,0.1,0,0.1,0l0.2,0.5L8.7,6
		C7.6,6.6,6.6,7.6,6,8.7L4.7,8.2L4.2,8c0-0.9-0.5-1.7-1.3-2.1C2.7,5.8,2.4,5.8,2.1,5.8c-0.9,0-1.6,0.5-1.9,1.3
		c-0.4,1.1,0.1,2.3,1.1,2.8C1.6,10,1.8,10,2.1,10c0.6,0,1.2-0.3,1.6-0.7l0.5,0.2L5.4,10c-0.2,0.6-0.3,1.3-0.3,2s0.1,1.3,0.3,2
		l-1.3,0.5l-0.5,0.2c-0.4-0.4-1-0.7-1.6-0.7c-0.3,0-0.5,0.1-0.8,0.2c-1.1,0.4-1.6,1.7-1.1,2.8c0.3,0.8,1.1,1.3,1.9,1.3
		c0.3,0,0.5-0.1,0.8-0.2c0.8-0.4,1.3-1.2,1.3-2.1l0.5-0.2L6,15.3c0.6,1.2,1.6,2.1,2.8,2.8l-0.5,1.3L8,19.8c0,0-0.1,0-0.1,0
		c-0.9,0-1.6,0.5-1.9,1.3c-0.4,1.1,0.1,2.3,1.1,2.8C7.4,23.9,7.6,24,7.9,24c0.9,0,1.6-0.5,1.9-1.3c0.4-0.8,0.1-1.8-0.5-2.4l0.2-0.5
		l0.5-1.3c0.6,0.2,1.3,0.3,2,0.3c0.7,0,1.3-0.1,2-0.3l0.5,1.3l0.2,0.5c-0.6,0.6-0.9,1.5-0.5,2.4c0.3,0.8,1.1,1.3,1.9,1.3
		c0.3,0,0.5-0.1,0.8-0.2c1.1-0.4,1.6-1.7,1.1-2.8c-0.3-0.8-1.1-1.3-1.9-1.3c0,0-0.1,0-0.1,0l-0.2-0.5L15.3,18
		c1.2-0.6,2.1-1.6,2.8-2.8l1.3,0.5l0.5,0.2c0,0.9,0.5,1.7,1.3,2.1c0.3,0.1,0.5,0.2,0.8,0.2c0.9,0,1.6-0.5,1.9-1.3
		C24.3,15.8,23.8,14.6,22.7,14.1z M12,17.4c-3,0-5.4-2.4-5.4-5.4S9,6.6,12,6.6S17.4,9,17.4,12S15,17.4,12,17.4z"/>
	<path class="st1" d="M12,8c-2.2,0-4,1.8-4,4s1.8,4,4,4s4-1.8,4-4S14.2,8,12,8z M12.7,13.5h-1.4v-3.1h1.4V13.5z"/>
</g>
</svg>
