<svg xmlns="http://www.w3.org/2000/svg" viewBox="0 0 102.14 77.66"><defs><style>.cls-1{fill:#008b84;}</style></defs><title>Asset 16</title><g id="Layer_2" data-name="Layer 2"><g id="Layer_1-2" data-name="Layer 1"><path class="cls-1" d="M41.6,44.89H36.36a1.23,1.23,0,0,0-1.24,1.24V76.42a1.24,1.24,0,0,0,1.24,1.24H41.6a1.25,1.25,0,0,0,1.25-1.24V46.13a1.24,1.24,0,0,0-1.25-1.24Z"/><path class="cls-1" d="M65.77,44.89H60.53a1.25,1.25,0,0,0-1.25,1.24V76.42a1.25,1.25,0,0,0,1.25,1.24h5.24A1.25,1.25,0,0,0,67,76.42V46.13a1.25,1.25,0,0,0-1.25-1.24Z"/><path class="cls-1" d="M101.17,11.85,51.36,0a1.42,1.42,0,0,0-.58,0L1,11.85A1.25,1.25,0,0,0,0,13.07v3a1.23,1.23,0,0,0,1.24,1.24H3V76.42a1.25,1.25,0,0,0,1.24,1.24H17.44a1.26,1.26,0,0,0,1.26-1.24V37.92c0-.05-.18-4.66,2.48-7.43a7.54,7.54,0,0,1,5.72-2.13,7.67,7.67,0,0,1,5.75,2.2c2.65,2.77,2.47,7.31,2.47,7.42V39.6H34a.3.3,0,0,0-.31.31V42.4a.31.31,0,0,0,.31.31H44a.31.31,0,0,0,.31-.31V39.91A.3.3,0,0,0,44,39.6H42.85V37.92c0-.05-.19-4.62,2.48-7.41a7.5,7.5,0,0,1,5.73-2.14,7.7,7.7,0,0,1,5.75,2.19c2.64,2.78,2.47,7.32,2.47,7.42V39.6H58.16a.31.31,0,0,0-.31.31V42.4a.31.31,0,0,0,.31.31h10a.32.32,0,0,0,.31-.31V39.91a.31.31,0,0,0-.31-.31H67V37.92s-.17-4.65,2.48-7.42a7.51,7.51,0,0,1,5.72-2.13A7.69,7.69,0,0,1,81,30.56c2.64,2.78,2.47,7.32,2.47,7.42V76.42a1.25,1.25,0,0,0,1.24,1.24H97.9a1.24,1.24,0,0,0,1.24-1.24V17.29h1.76a1.23,1.23,0,0,0,1.24-1.24v-3a1.25,1.25,0,0,0-1-1.22ZM13.64,58.31a.31.31,0,0,1-.31.31h-5A.32.32,0,0,1,8,58.31V45.48a.39.39,0,0,1,.08-.2l2.48-3.08a.32.32,0,0,1,.49,0l2.5,3.08a.36.36,0,0,1,.06.2Zm80.45,0a.31.31,0,0,1-.31.31h-5a.32.32,0,0,1-.32-.31V45.48a.37.37,0,0,1,.07-.2l2.5-3.08a.31.31,0,0,1,.48,0L94,45.28a.35.35,0,0,1,0,.2Z"/></g></g></svg>