<?xml version="1.0" encoding="utf-8"?>
<!-- Generator: Adobe Illustrator 24.0.3, SVG Export Plug-In . SVG Version: 6.00 Build 0)  -->
<svg version="1.1" id="Layer_1" xmlns="http://www.w3.org/2000/svg" xmlns:xlink="http://www.w3.org/1999/xlink" x="0px" y="0px"
	 viewBox="0 0 24 24" style="enable-background:new 0 0 24 24;" xml:space="preserve">
<style type="text/css">
	.st0{fill:#706F6F;}
	.st1{fill:#008B84;}
</style>
<g>
	<path class="st1" d="M9.8,13.4H8.5c-0.2,0-0.3,0.1-0.3,0.3v7.1c0,0.2,0.1,0.3,0.3,0.3h1.2c0.2,0,0.3-0.1,0.3-0.3v-7.1
		C10.1,13.6,9.9,13.4,9.8,13.4L9.8,13.4z M9.8,13.4"/>
	<g>
		<path class="st1" d="M15.5,13.4h-1.2c-0.2,0-0.3,0.1-0.3,0.3v7.1c0,0.2,0.1,0.3,0.3,0.3h1.2c0.2,0,0.3-0.1,0.3-0.3v-7.1
			C15.7,13.6,15.6,13.4,15.5,13.4L15.5,13.4z M15.5,13.4"/>
		<path class="st1" d="M23.8,5.7L12.1,2.9c0,0-0.1,0-0.1,0L0.2,5.7C0.1,5.7,0,5.8,0,5.9v0.7c0,0.2,0.1,0.3,0.3,0.3h0.4v13.9
			c0,0.2,0.1,0.3,0.3,0.3h3.1c0.2,0,0.3-0.1,0.3-0.3v-9c0,0,0-1.1,0.6-1.7c0.3-0.3,0.8-0.5,1.3-0.5c0.6,0,1,0.2,1.4,0.5
			c0.6,0.7,0.6,1.7,0.6,1.7v0.4H8c0,0-0.1,0-0.1,0.1v0.6c0,0,0,0.1,0.1,0.1h2.3c0,0,0.1,0,0.1-0.1v-0.6c0,0,0-0.1-0.1-0.1h-0.3v-0.4
			c0,0,0-1.1,0.6-1.7C11,9.7,11.4,9.5,12,9.5c0.6,0,1,0.2,1.4,0.5c0.6,0.7,0.6,1.7,0.6,1.7v0.4h-0.3c0,0-0.1,0-0.1,0.1v0.6
			c0,0,0,0.1,0.1,0.1H16c0,0,0.1,0,0.1-0.1v-0.6c0,0,0-0.1-0.1-0.1h-0.3v-0.4c0,0,0-1.1,0.6-1.7c0.3-0.3,0.8-0.5,1.3-0.5
			c0.6,0,1,0.2,1.4,0.5c0.6,0.7,0.6,1.7,0.6,1.7v9c0,0.2,0.1,0.3,0.3,0.3H23c0.2,0,0.3-0.1,0.3-0.3V6.9h0.4c0.2,0,0.3-0.1,0.3-0.3
			V5.9C24,5.8,23.9,5.7,23.8,5.7L23.8,5.7z M3.2,16.6C3.2,16.6,3.2,16.6,3.2,16.6L2,16.6c0,0-0.1,0-0.1-0.1v-3c0,0,0,0,0,0l0.6-0.7
			c0,0,0.1,0,0.1,0l0.6,0.7c0,0,0,0,0,0V16.6z M22.1,16.6C22.1,16.6,22.1,16.6,22.1,16.6l-1.2,0.1c0,0-0.1,0-0.1-0.1v-3c0,0,0,0,0,0
			l0.6-0.7c0,0,0.1,0,0.1,0l0.6,0.7c0,0,0,0,0,0V16.6z M22.1,16.6"/>
	</g>
</g>
</svg>
