<svg xmlns="http://www.w3.org/2000/svg" viewBox="0 0 83.97 83.98"><defs><style>.cls-1{fill:#008b84;}</style></defs><title>Asset 11</title><g id="Layer_2" data-name="Layer 2"><g id="Layer_1-2" data-name="Layer 1"><path class="cls-1" d="M42.22,10.33a1.55,1.55,0,0,1,2.14-.53l5.22,3.13c-.7-4.38-3.15-6.48-7.59-6.48-4.84,0-7.31,2.49-7.73,7.73,2.75-.26,7-1.16,7.81-3.54A2.2,2.2,0,0,1,42.22,10.33Z"/><path class="cls-1" d="M42,23.66c2.41,0,7.13-3.15,7.75-7l-5.59-3.36c-2.24,3-7.08,3.77-9.76,4A9.87,9.87,0,0,0,42,23.66Z"/><polygon class="cls-1" points="40.7 32.66 41.99 33.96 43.29 32.66 41.99 29.43 40.7 32.66"/><path class="cls-1" d="M17.63,55.7a3.22,3.22,0,1,0-3.22,3.21A3.22,3.22,0,0,0,17.63,55.7Z"/><path class="cls-1" d="M52.92,35.76l0,0V32a5.16,5.16,0,0,0-5.16-5.16H44.3l2.27,5.67a1.58,1.58,0,0,1-.34,1.69L43.1,37.28a1.58,1.58,0,0,1-2.22,0l-3.12-3.13a1.56,1.56,0,0,1-.35-1.69l2.27-5.67H36.21A5.17,5.17,0,0,0,31,32v3.84a19.44,19.44,0,0,0,21.88,0Z"/><path class="cls-1" d="M29.41,75.79a4.17,4.17,0,0,0-2.56,2.56H15.4V72.68A13.78,13.78,0,0,0,20.84,71v-2.4A6.44,6.44,0,1,0,8,68.57v2.82a14,14,0,0,0,3.94,1.2l.69.09v7.06a1.4,1.4,0,0,0,1.4,1.4H26.85a4.2,4.2,0,1,0,2.56-5.35Z"/><polygon class="cls-1" points="63.13 78.09 64.37 79.33 65.61 78.09 64.37 74.99 63.13 78.09"/><path class="cls-1" d="M69.93,72.44H66.59l2.18,5.45a1.53,1.53,0,0,1-.33,1.63l-3,3a1.5,1.5,0,0,1-2.13,0l-3-3A1.52,1.52,0,0,1,60,77.89l2.19-5.45H58.81a5,5,0,0,0-5,5v3.51a19.6,19.6,0,0,0,21,0V77.4A5,5,0,0,0,69.93,72.44Z"/><path class="cls-1" d="M83.78,61.68A19.6,19.6,0,0,0,65.09,44.8L56,33.24A19.46,19.46,0,0,0,61.5,21H75.56v1.54a7,7,0,1,0,2.8,0V19.59a1.4,1.4,0,0,0-1.4-1.4H61.5A19.49,19.49,0,0,0,57.4,7.55l2-1.95H75.82a4.21,4.21,0,1,0,0-2.8h-17a1.41,1.41,0,0,0-1,.41L55.53,5.47A19.55,19.55,0,0,0,22.47,18.19H10.72L6.15,7.9a4.17,4.17,0,1,0-2.9.38L8.53,20.16A1.41,1.41,0,0,0,9.81,21H22.47a19.47,19.47,0,0,0,5.4,12.14L16.05,44.94A14,14,0,0,0,4.75,69.27v-.7a9.67,9.67,0,0,1,5-8.45,6.43,6.43,0,1,1,9.31,0,9.66,9.66,0,0,1,5,7.47h0a8.85,8.85,0,0,1,0,.89,14,14,0,0,0-4.88-22.72L30,35l.2.15a19.62,19.62,0,0,1-2.4-2.25v-1A8.32,8.32,0,0,1,35,23.69a10.91,10.91,0,0,1-4.14-7.94c0-10.39,6-12.58,11-12.58s11,2.19,11,12.58a10.92,10.92,0,0,1-4.15,7.93,8.3,8.3,0,0,1,7.29,8.26v.5L56,33h0a18.45,18.45,0,0,1-3,2.71c.3-.21.61-.41.9-.64L61.66,45A19.59,19.59,0,0,0,50.83,78.55l0-1.15a7.93,7.93,0,0,1,7-7.89,10.46,10.46,0,0,1-4-7.59c0-9.92,5.72-12,10.52-12s10.52,2.09,10.52,12a10.47,10.47,0,0,1-4,7.59,7.92,7.92,0,0,1,7,7.89v1.17A19.58,19.58,0,0,0,83.78,61.68Z"/><path class="cls-1" d="M64.59,56.65a1.49,1.49,0,0,1,2-.52l5,3c-.67-4.21-3-6.22-7.28-6.22-4.66,0-7,2.39-7.43,7.42,2.64-.24,6.75-1.11,7.5-3.39A1.59,1.59,0,0,1,64.59,56.65Z"/><path class="cls-1" d="M64.37,69.44c2.31,0,6.84-3,7.44-6.71l-5.37-3.22h0c-2.16,2.85-6.8,3.63-9.38,3.84A9.49,9.49,0,0,0,64.37,69.44Z"/></g></g></svg>