<?xml version="1.0" encoding="utf-8"?>
<!-- Generator: Adobe Illustrator 24.0.3, SVG Export Plug-In . SVG Version: 6.00 Build 0)  -->
<svg version="1.1" id="Layer_1" xmlns="http://www.w3.org/2000/svg" xmlns:xlink="http://www.w3.org/1999/xlink" x="0px" y="0px"
	 viewBox="0 0 24 24" style="enable-background:new 0 0 24 24;" xml:space="preserve">
<style type="text/css">
	.st0{fill:#706F6F;}
	.st1{fill:#008B84;}
</style>
<g>
	<path class="st1" d="M12.1,3c0.1-0.2,0.4-0.3,0.6-0.2l1.5,0.9C14,2.4,13.3,1.8,12,1.8c-1.4,0-2.1,0.7-2.2,2.2
		C10.6,4,11.8,3.7,12.1,3C12,3,12,3,12.1,3z"/>
	<path class="st1" d="M12,6.8c0.7,0,2-0.9,2.2-2l-1.6-1c-0.6,0.8-2,1.1-2.8,1.1C10.2,5.9,11,6.6,12,6.8z"/>
	<polygon class="st1" points="11.6,9.3 12,9.7 12.4,9.3 12,8.4 	"/>
	<path class="st1" d="M5,15.9C5,15.4,4.6,15,4.1,15s-0.9,0.4-0.9,0.9c0,0.5,0.4,0.9,0.9,0.9S5,16.4,5,15.9z"/>
	<path class="st1" d="M15.1,10.2C15.1,10.2,15.1,10.2,15.1,10.2l0-1.1c0-0.8-0.7-1.5-1.5-1.5h-1l0.6,1.6c0.1,0.2,0,0.4-0.1,0.5
		l-0.9,0.9c-0.2,0.2-0.5,0.2-0.6,0l-0.9-0.9c-0.1-0.1-0.2-0.3-0.1-0.5l0.6-1.6h-1c-0.8,0-1.5,0.7-1.5,1.5v1.1
		C10.8,11.5,13.2,11.5,15.1,10.2L15.1,10.2z"/>
	<path class="st1" d="M8.4,21.7c-0.3,0.1-0.6,0.4-0.7,0.7H4.4v-1.6C5,20.7,5.5,20.5,6,20.3v-0.7c0-1-0.8-1.8-1.8-1.8
		s-1.8,0.8-1.8,1.8v0.8c0.3,0.2,0.7,0.3,1.1,0.3c0.1,0,0.1,0,0.2,0v2c0,0.2,0.2,0.4,0.4,0.4h3.7c0.2,0.6,0.9,1,1.5,0.7
		c0.6-0.2,1-0.9,0.7-1.5C9.7,21.8,9,21.4,8.4,21.7z"/>
	<polygon class="st1" points="18,22.3 18.4,22.7 18.8,22.3 18.4,21.4 	"/>
	<path class="st1" d="M20,20.7h-1l0.6,1.6c0.1,0.2,0,0.3-0.1,0.5l-0.9,0.9c-0.2,0.2-0.4,0.2-0.6,0l-0.9-0.9
		c-0.1-0.1-0.2-0.3-0.1-0.5l0.6-1.6h-1c-0.8,0-1.4,0.6-1.4,1.4v1c1.1,0.7,2.4,1,3.8,0.8c0.8-0.1,1.6-0.4,2.2-0.8v-1
		C21.4,21.3,20.8,20.7,20,20.7z"/>
	<path class="st1" d="M23.9,17.6c-0.4-2.7-2.6-4.7-5.3-4.8L16,9.5c0.9-0.9,1.5-2.2,1.6-3.5h4v0.4c-0.9,0.2-1.6,1-1.6,2
		c0,1.1,0.9,2,2,2s2-0.9,2-2c0-0.9-0.7-1.8-1.6-2V5.6c0-0.2-0.2-0.4-0.4-0.4h-4.4c-0.1-1.1-0.5-2.2-1.2-3L17,1.6h4.7
		c0.2,0.6,0.9,1,1.5,0.7c0.6-0.2,1-0.9,0.7-1.5c-0.2-0.6-0.9-1-1.5-0.7c-0.3,0.1-0.6,0.4-0.7,0.7h-4.9c-0.1,0-0.2,0-0.3,0.1
		l-0.6,0.6C13.6-0.6,10.1-0.5,8,1.7C7.1,2.7,6.5,3.9,6.4,5.2H3.1L1.8,2.3c0.6-0.3,0.8-1,0.5-1.6C2,0.1,1.2-0.2,0.6,0.1
		c-0.6,0.3-0.8,1-0.5,1.6c0.2,0.3,0.4,0.5,0.8,0.6l1.5,3.4C2.5,5.9,2.6,6,2.8,6h3.6C6.5,7.3,7.1,8.5,8,9.5l-3.4,3.4
		C2.4,12.5,0.4,14,0,16.2c-0.2,1.4,0.3,2.7,1.3,3.6v-0.2c0-1,0.5-1.9,1.4-2.4c-0.7-0.7-0.7-1.8,0-2.5c0.7-0.7,1.9-0.8,2.6-0.1
		c0.7,0.7,0.8,1.9,0.1,2.6c0.8,0.4,1.3,1.2,1.4,2.1v0c0,0.1,0,0.2,0,0.3c0.8-0.8,1.2-2,1.1-3.2c-0.1-1.5-1.1-2.8-2.5-3.3L8.6,10
		c0,0,0,0,0.1,0C8.4,9.8,8.1,9.6,7.9,9.4V9.1c0-1.2,0.9-2.2,2.1-2.4C9.3,6.2,8.9,5.4,8.8,4.5c0-3,1.7-3.6,3.1-3.6
		c1.4,0,3.1,0.6,3.1,3.6c-0.1,0.9-0.5,1.7-1.2,2.3C15.1,6.9,16,7.9,16,9.1v0.1l0,0.2l0,0c-0.3,0.3-0.5,0.5-0.9,0.8
		c0.1-0.1,0.2-0.1,0.3-0.2l2.2,2.8c-3.1,0.4-5.2,3.3-4.8,6.3c0.2,1.3,0.8,2.4,1.7,3.3l0-0.3c0-1.1,0.9-2.1,2-2.3
		c-0.7-0.5-1.1-1.3-1.1-2.2c0-2.8,1.6-3.4,3-3.4c1.4,0,3,0.6,3,3.4c-0.1,0.9-0.5,1.6-1.1,2.2c1.1,0.1,2,1.1,2,2.3v0.3
		C23.5,21.3,24.2,19.5,23.9,17.6z"/>
	<path class="st1" d="M18.5,16.2c0.1-0.2,0.4-0.3,0.6-0.1l1.4,0.9c-0.2-1.2-0.9-1.8-2.1-1.8c-1.3,0-2,0.7-2.1,2.1
		C17,17.2,18.2,16.9,18.5,16.2C18.4,16.2,18.4,16.2,18.5,16.2z"/>
	<path class="st1" d="M18.4,19.8c0.7,0,2-0.9,2.1-1.9L19,17v0c-0.6,0.8-1.9,1-2.7,1.1C16.6,19,17.4,19.7,18.4,19.8z"/>
</g>
</svg>
