<?xml version="1.0" encoding="utf-8"?>
<!-- Generator: Adobe Illustrator 24.0.3, SVG Export Plug-In . SVG Version: 6.00 Build 0)  -->
<svg version="1.1" id="Layer_1" xmlns="http://www.w3.org/2000/svg" xmlns:xlink="http://www.w3.org/1999/xlink" x="0px" y="0px"
	 viewBox="0 0 24 24" style="enable-background:new 0 0 24 24;" xml:space="preserve">
<style type="text/css">
	.st0{fill:#706F6F;}
	.st1{fill:#008B84;}
</style>
<g>
	<path class="st1" d="M0.7,24h12.7c0.4,0,0.7-0.3,0.7-0.7v-0.7c0-0.8-0.6-1.4-1.4-1.4v-0.8c0-1.1-0.9-2-2-2H3.4c-1.1,0-2,0.9-2,2
		v0.8c-0.8,0-1.4,0.6-1.4,1.4v0.7C0,23.7,0.3,24,0.7,24L0.7,24z M0.7,24"/>
	<g>
		<path class="st1" d="M8.8,15.5c0.5,0.6,1.3,0.7,2,0.3c0.6-0.5,0.7-1.3,0.3-2L6.8,8.2c-0.5-0.6-1.3-0.7-2-0.3
			c-0.6,0.5-0.7,1.3-0.3,2L8.8,15.5z M8.8,15.5"/>
		<path class="st1" d="M18.9,7.9c0.5,0.6,1.3,0.7,2,0.3c0.6-0.5,0.7-1.3,0.3-2l-4.2-5.6c-0.5-0.6-1.3-0.7-2-0.3
			c-0.6,0.5-0.7,1.3-0.3,2L18.9,7.9z M18.9,7.9"/>
	</g>
	<path class="st1" d="M15.8,12c1-0.8,1.8-1.8,2.3-2.8l-4.9-6.5c-1.1,0.2-2.3,0.7-3.3,1.5c-1,0.8-1.8,1.8-2.3,2.8l4.9,6.5
		C13.6,13.2,14.8,12.7,15.8,12L15.8,12z M15.8,12"/>
	<g>
		<path class="st1" d="M17.7,12.1c-0.3,0.3-0.7,0.7-1.1,0.9c-0.4,0.3-0.8,0.5-1.2,0.8l0.9,1.2l2.2-1.7L17.7,12.1z M17.7,12.1"/>
		<path class="st1" d="M19.5,14.5l-2.2,1.7l4.2,5.6c0.5,0.6,1.3,0.7,2,0.3c0.6-0.5,0.7-1.3,0.3-2L19.5,14.5z M19.5,14.5"/>
	</g>
</g>
</svg>
