<svg xmlns="http://www.w3.org/2000/svg" viewBox="0 0 86.96 86.96"><defs><style>.cls-1{fill:#706f6f;}</style></defs><title>Asset 4</title><g id="Layer_2" data-name="Layer 2"><g id="Layer_1-2" data-name="Layer 1"><path class="cls-1" d="M2.55,87h46.2a2.55,2.55,0,0,0,2.55-2.54V81.7a5.1,5.1,0,0,0-5.1-5.1v-3a7.32,7.32,0,0,0-7.31-7.32H12.41A7.32,7.32,0,0,0,5.1,73.56v3A5.1,5.1,0,0,0,0,81.7v2.72A2.55,2.55,0,0,0,2.55,87Z"/><path class="cls-1" d="M31.89,56.11A5.1,5.1,0,0,0,40,50L24.69,29.63a5.1,5.1,0,0,0-8.14,6.13Z"/><path class="cls-1" d="M68.51,28.51a5.1,5.1,0,0,0,8.14-6.13L61.32,2a5.1,5.1,0,0,0-8.14,6.13Z"/><path class="cls-1" d="M57.34,43.31A27.72,27.72,0,0,0,65.7,33.24L47.86,9.56A28.48,28.48,0,0,0,27.51,24.9L45.35,48.57a27.58,27.58,0,0,0,12-5.26Z"/><path class="cls-1" d="M64.22,44a35.51,35.51,0,0,1-3.82,3.4,34.43,34.43,0,0,1-4.32,2.73l3.32,4.41,8.14-6.13Z"/><path class="cls-1" d="M70.61,52.45l-8.14,6.14L77.8,78.94a5.1,5.1,0,1,0,8.14-6.14Z"/></g></g></svg>