<?xml version="1.0" encoding="utf-8"?>
<!-- Generator: Adobe Illustrator 24.0.3, SVG Export Plug-In . SVG Version: 6.00 Build 0)  -->
<svg version="1.1" id="Layer_1" xmlns="http://www.w3.org/2000/svg" xmlns:xlink="http://www.w3.org/1999/xlink" x="0px" y="0px"
	 viewBox="0 0 24 24" style="enable-background:new 0 0 24 24;" xml:space="preserve">
<style type="text/css">
	.st0{fill:#706F6F;}
	.st1{fill:#008B84;}
</style>
<g>
	<path class="st1" d="M21.1,0h-5.8c-0.2,0-0.4,0.2-0.4,0.4v1.7h-0.8c-0.5,0-0.8,0.4-0.8,0.8s0.4,0.8,0.8,0.8h0.8v2.1h1.7
		c0-0.9,0.7-1.7,1.7-1.7c0.9,0,1.7,0.7,1.7,1.7h1.2c0.2,0,0.4-0.2,0.4-0.4v-5C21.5,0.2,21.3,0,21.1,0L21.1,0z M21.1,0"/>
	<path class="st1" d="M9.9,24c1,0,1.8-0.7,2-1.7H7.9C8.1,23.3,8.9,24,9.9,24L9.9,24z M9.9,24"/>
	<path class="st1" d="M6.6,7.4c0.9,0,1.7,0.7,1.7,1.7h1.7V7.9C9,7.9,8.3,7.1,8.3,6.2S9,4.6,9.9,4.6V2.5H9.6c-3.8,0-6.9,2.9-7.1,6.6
		H5C5,8.2,5.7,7.4,6.6,7.4L6.6,7.4z M6.6,7.4"/>
	<path class="st1" d="M7,18.2h2.9v-3.3c-0.9,0-1.7-0.7-1.7-1.7s0.7-1.7,1.7-1.7V9.9H7.4V9.1c0-0.5-0.4-0.8-0.8-0.8
		c-0.5,0-0.8,0.4-0.8,0.8v0.8H2.5c0.1,2.1,1,4,2.6,5.3L7,16.8V18.2z M7,18.2"/>
	<path class="st1" d="M14.9,9.1c0-0.5-0.4-0.8-0.8-0.8s-0.8,0.4-0.8,0.8v0.8h-2.5v2.5H9.9c-0.5,0-0.8,0.4-0.8,0.8
		c0,0.5,0.4,0.8,0.8,0.8h0.8v4.1h2.1v-1.4l1.9-1.6c1.6-1.3,2.5-3.2,2.6-5.3h-2.5V9.1z M14.9,9.1"/>
	<path class="st1" d="M12.4,20.7h-5c-0.2,0-0.4,0.2-0.4,0.4c0,0.2,0.2,0.4,0.4,0.4h5c0.2,0,0.4-0.2,0.4-0.4
		C12.8,20.9,12.6,20.7,12.4,20.7L12.4,20.7z M12.4,20.7"/>
	<path class="st1" d="M13.2,19H6.6c-0.2,0-0.4,0.2-0.4,0.4c0,0.2,0.2,0.4,0.4,0.4h6.6c0.2,0,0.4-0.2,0.4-0.4
		C13.7,19.2,13.5,19,13.2,19L13.2,19z M13.2,19"/>
</g>
</svg>
